# AST/ASF file generated using VICON BodyLanguage
# -----------------------------------------------
:version 1.10
:name VICON
:units
  mass 1.0
  length 0.45
  angle deg
:documentation
   .ast/.asf automatically generated from VICON data using
   VICON BodyBuilder and BodyLanguage model FoxedUp or BRILLIANT.MOD
:root
   order TX TY TZ RX RY RZ
   axis XYZ
   position 0 0 0  
   orientation 0 0 0 
:bonedata
  begin
     id 1 
     name lhipjoint
     direction 0.70531 -0.63749 0.310071 
     length 2.59589 
     axis 0 0 0  XYZ
  end
  begin
     id 2 
     name lfemur
     direction 0.34202 -0.939693 0  
     length 6.19797  
     axis 0 0 20  XYZ
    dof rx ry rz
    limits (-160.0 20.0)
           (-70.0 70.0)
           (-60.0 70.0)
  end
  begin
     id 3 
     name ltibia
     direction 0.34202 -0.939693 0   
     length 7.80054   
     axis 0 0 20   XYZ
    dof rx
    limits (-10.0 170.0)
  end
  begin
     id 4 
     name lfoot
     direction 0.0828572 -0.227648 0.970212   
     length 1.88124   
     axis -90 7.62852e-016 20   XYZ
    dof rx rz
    limits (-45.0 90.0)
           (-70.0 20.0)
  end
  begin
     id 5 
     name ltoes
     direction 1.53544e-011 -4.219e-011 1   
     length 0.948015   
     axis -90 7.62852e-016 20   XYZ
    dof rx
    limits (-90.0 20.0)
  end
  begin
     id 6 
     name rhipjoint
     direction -0.730062 -0.614543 0.29891   
     length 2.69282  
     axis 0 0 0  XYZ 
  end
  begin
     id 7 
     name rfemur
     direction -0.34202 -0.939693 0   
     length 5.86298   
     axis 0 0 -20   XYZ
    dof rx ry rz
    limits (-160.0 20.0)
           (-70.0 70.0)
           (-70.0 60.0)
  end
  begin
     id 8 
     name rtibia
     direction -0.34202 -0.939693 0   
     length 7.72374   
     axis 0 0 -20   XYZ
    dof rx
    limits (-10.0 170.0)
 end
 begin
     id 9 
     name rfoot
     direction -0.0967421 -0.265797 0.959163   
     length 2.02368  
     axis -90 -7.62852e-016 -20   XYZ
    dof rx rz
    limits (-45.0 90.0)
           (-20.0 70.0)
  end
  begin
     id 10 
     name rtoes
     direction -1.53524e-011 -4.21768e-011 1   
     length 1.01373   
     axis -90 -7.62852e-016 -20   XYZ
    dof rx
    limits (-90.0 20.0)
  end
  begin
     id 11 
     name lowerback
     direction 0.00561702 0.992801 -0.119643   
     length 2.02816   
     axis 0 0 0   XYZ
    dof rx ry rz
    limits (-20.0 45.0)
           (-30.0 30.0)
           (-30.0 30.0)
  end
  begin
     id 12 
     name upperback
     direction 0.00155544 0.995735 -0.0922509   
     length 2.02265   
     axis 0 0 0   XYZ
    dof rx ry rz
    limits (-20.0 45.0)
           (-30.0 30.0)
           (-30.0 30.0)
  end
  begin
     id 13 
     name thorax
     direction -0.000937535 0.999317 -0.0369292   
     length 2.04823   
     axis 0 0 0   XYZ
    dof rx ry rz
    limits (-20.0 45.0)
           (-30.0 30.0)
           (-30.0 30.0)
  end
  begin
     id 14 
     name lowerneck
     direction -0.0813151 0.981659 0.172436   
     length 1.8875   
     axis 0 0 0   XYZ
    dof rx ry rz
    limits (-20.0 45.0)
           (-30.0 30.0)
           (-30.0 30.0)
  end
  begin
     id 15 
     name upperneck
     direction 0.119359 0.955672 -0.269157   
     length 1.92801   
     axis 0 0 0   XYZ
    dof rx ry rz
    limits (-20.0 45.0)
           (-30.0 30.0)
           (-30.0 30.0)
  end
  begin
     id 16
     name head
     direction 0.0421007 0.992672 -0.113268  
     length 1.95809  
     axis 0 0 0   XYZ
    dof rx ry rz
    limits (-20.0 45.0)
           (-30.0 30.0)
           (-30.0 30.0)
  end
  begin
     id 17 
     name lclavicle
     direction 0.944093 0.32865 -0.0260136  
     length 3.84992  
     axis 0 0 0   XYZ
    dof ry rz
    limits (-20.0 10.0)
           (0.0 20.0)
  end
  begin
     id 18 
     name lhumerus
     direction 1 -4.48979e-011 -1.27712e-029   
     length 5.53593   
     axis 180 -30 -90   XYZ
    dof rx ry rz
    limits (-60.0 90.0)
           (-90.0 90.0)
           (-90.0 90.0)
  end
  begin
     id 19
     name lradius
     direction 1 -4.48966e-011 1.00051e-028   
     length 3.13345   
     axis 180 -30 -90   XYZ
    dof rx
    limits (-10.0 170.0)
  end
  begin
     id 20
     name lwrist
     direction 1 -4.4896e-011 2.56952e-028   
     length 1.56673   
     axis -5.12785e-016 90 90   XYZ
    dof ry
    limits (-180.0 0.0)
 end
  begin
     id 21 
     name lhand
     direction 1 -4.48934e-011 5.13905e-028   
     length 0.713374   
     axis -3.27915e-016 90 90   XYZ
    dof rx rz
    limits (-90.0 90.0)
           (-45.0 45.0)
  end
  begin
     id 22 
     name lfingers
     direction 1 -4.48973e-011 1.02781e-027   
     length 0.575141   
     axis -6.5583e-016 90 90   XYZ
    dof rx
    limits (0.0 90.0)
  end
  begin
     id 23
     name lthumb
     direction 0.707107 -6.34883e-011 0.707107   
     length 0.82579   
     axis -90 45 2.85299e-015   XYZ
    dof rx rz
    limits (-45.0 45.0)
           (-45.0 45.0)
  end
  begin
     id 24 
     name rclavicle
     direction -0.936895 0.34884 0.0232243   
     length 3.53304  
     axis 0 0 0   XYZ 
    dof ry rz
    limits (-10.0 20.0)
           (-20.0 0.0)
  end
  begin
     id 25 
     name rhumerus
     direction -1 -4.48965e-011 1.05514e-027  
     length 5.4685   
     axis 180 30 90   XYZ
    dof rx ry rz
    limits (-90.0 60.0)
           (-90.0 90.0)
           (-90.0 90.0)
  end
  begin
     id 26 
     name rradius
     direction -1 -4.48964e-011 -1.1079e-027   
     length 3.22411   
     axis 180 30 90   XYZ
    dof rx
    limits (-10.0 170.0)
  end
  begin
     id 27 
     name rwrist
     direction -1 -4.48973e-011 2.56952e-028   
     length 1.61206   
     axis -5.12785e-016 -90 -90   XYZ
    dof ry
    limits (-180.0 0.0)
  end
  begin
     id 28
     name rhand
     direction -1 -4.48957e-011 5.13905e-028   
     length 0.74528   
     axis -3.27915e-016 -90 -90   XYZ
    dof rx rz
    limits (-90.0 90.0)
           (-45.0 45.0)
  end
  begin
     id 29
     name rfingers
     direction -1 -4.4901e-011 1.02781e-027   
     length 0.600864   
     axis -6.5583e-016 -90 -90   XYZ
    dof rx
    limits (0.0 90.0)
  end
  begin
     id 30
     name rthumb
     direction -0.707107 -6.34972e-011 0.707107   
     length 0.862724   
     axis -90 -45 -2.85299e-015   XYZ
    dof rx rz
    limits (-45.0 45.0)
           (-45.0 45.0)
  end
:hierarchy
  begin
    root lhipjoint rhipjoint lowerback
    lhipjoint lfemur
    lfemur ltibia
    ltibia lfoot
    lfoot ltoes
    rhipjoint rfemur
    rfemur rtibia
    rtibia rfoot
    rfoot rtoes
    lowerback upperback
    upperback thorax
    thorax lowerneck lclavicle rclavicle
    lowerneck upperneck
    upperneck head
    lclavicle lhumerus
    lhumerus lradius
    lradius lwrist
    lwrist lhand lthumb
    lhand lfingers
    rclavicle rhumerus
    rhumerus rradius
    rradius rwrist
    rwrist rhand rthumb
    rhand rfingers
  end

#!OML:ASF G:\Work\Work\Patient Classification 1\Liu\Session 1\Liu.ASF
:FULLY-SPECIFIED
:DEGREES
452
root -8.90286 15.49 -13.0313 -351.602 -7.42124 -1.9721
lowerback 6.42943 -2.76579 3.44719
upperback 1.51497 -3.36715 3.85476
thorax -2.00173 -1.69266 2.31704
lowerneck -25.3627 0.515497 -8.48888
upperneck 22.9691 2.78816 4.39715
head 11.5023 1.07902 3.51259
rclavicle -1.0138e-014 4.92986e-014
rhumerus -54.2876 19.5686 -82.9168
rradius 93.0219
rwrist -13.419
rhand -29.2898 29.5083
rfingers 7.12502
rthumb -2.63159 -0.455174
lclavicle -1.0138e-014 4.92986e-014
lhumerus -46.3238 -33.7179 97.2705
lradius 92.6486
lwrist 21.6509
lhand -28.8037 39.6772
lfingers 7.12502
lthumb -2.16212 69.646
rfemur -35.5144 3.04752 22.3461
rtibia 47.2945
rfoot -19.821 1.38331
rtoes -5.67496
lfemur -6.49369 11.1106 -26.5355
ltibia 72.6284
lfoot 4.54115 16.9638
ltoes 16.3544
453
root -8.92751 15.4396 -12.7046 -351.453 -7.72679 -3.56244
lowerback 6.5062 -2.42485 5.0974
upperback 1.73739 -2.80583 4.18008
thorax -1.88274 -1.41607 1.68783
lowerneck -25.1825 0.197781 -8.65094
upperneck 22.2642 2.33682 4.5796
head 11.2316 0.907078 3.50889
rclavicle 3.35946e-014 -2.54444e-014
rhumerus -52.6366 20.1345 -82.6947
rradius 92.8148
rwrist -13.5042
rhand -28.9084 28.4652
rfingers 7.12502
rthumb -2.26321 -1.50255
lclavicle 3.35946e-014 -2.54444e-014
lhumerus -46.4644 -33.0455 97.0622
lradius 91.1253
lwrist 20.2897
lhand -27.6381 40.8563
lfingers 7.12502
lthumb -1.03634 70.8335
rfemur -33.9354 3.09029 24.1175
rtibia 47.3036
rfoot -21.0896 2.08835
rtoes -6.93213
lfemur -9.38248 12.0623 -24.4487
ltibia 76.7105
lfoot -0.6063 14.2367
ltoes -9.22698
454
root -8.95404 15.3975 -12.3847 -351.152 -7.7233 -4.17119
lowerback 6.35802 -2.2141 5.74744
upperback 1.84796 -2.50189 4.31707
thorax -1.70318 -1.2626 1.43442
lowerneck -24.5891 -0.018344 -8.50539
upperneck 21.1533 1.97403 4.39211
head 10.7416 0.759675 3.31471
rclavicle -1.51076e-014 1.59028e-014
rhumerus -50.9328 21.0359 -82.4801
rradius 92.6484
rwrist -13.7763
rhand -28.1464 28.1157
rfingers 7.12502
rthumb -1.52727 -1.85857
lclavicle -1.51076e-014 1.59028e-014
lhumerus -46.6325 -32.1161 96.8369
lradius 89.6042
lwrist 19.0784
lhand -25.9215 42.6388
lfingers 7.12502
lthumb 0.62156 72.6176
rfemur -32.7956 2.76973 24.8448
rtibia 47.3996
rfoot -22.3749 2.48224
rtoes -8.70632
lfemur -12.7396 12.4332 -23.591
ltibia 80.4361
lfoot -1.08309 13.7982
ltoes -12.9378
455
root -8.97311 15.3639 -12.019 -350.866 -8.5814 -4.18973
lowerback 5.57017 -1.74261 5.7598
upperback 2.05836 -1.96481 4.24049
thorax -1.03931 -0.982389 1.27251
lowerneck -24.1908 -0.0725471 -8.33261
upperneck 20.555 1.87767 4.08528
head 10.4635 0.704831 3.13678
rclavicle -3.33958e-014 -2.3059e-014
rhumerus -49.089 22.1673 -82.2188
rradius 92.2758
rwrist -14.1195
rhand -27.7905 28.239
rfingers 7.12502
rthumb -1.18358 -1.73747
lclavicle -3.33958e-014 -2.3059e-014
lhumerus -46.9461 -31.108 96.7181
lradius 88.1417
lwrist 18.31
lhand -23.8251 45.3374
lfingers 7.12502
lthumb 2.64622 75.3007
rfemur -31.638 2.99249 24.7543
rtibia 47.5507
rfoot -23.5288 3.45937
rtoes -6.10039
lfemur -15.5633 13.3186 -23.6698
ltibia 83.3024
lfoot -1.48927 13.465
ltoes -15.7068
456
root -9.01049 15.3294 -11.7577 -350.803 -7.79732 -3.63846
lowerback 6.0252 -1.85518 5.15408
upperback 1.89891 -2.09652 4.19867
thorax -1.44209 -1.05589 1.59406
lowerneck -23.5525 -0.0176553 -8.4702
upperneck 19.973 1.953 4.04398
head 10.1316 0.736651 3.1307
rclavicle -5.56597e-015 6.91771e-014
rhumerus -47.1004 23.5759 -81.996
rradius 91.3736
rwrist -14.4656
rhand -27.63 29.102
rfingers 7.12502
rthumb -1.02852 -0.875315
lclavicle -5.56597e-015 6.91771e-014
lhumerus -47.6302 -29.9427 96.7466
lradius 86.9328
lwrist 17.626
lhand -23.2274 47.4947
lfingers 7.12502
lthumb 3.22352 77.4501
rfemur -30.5255 2.27368 24.213
rtibia 47.8165
rfoot -24.1622 4.46009
rtoes -0.698264
lfemur -19.3509 12.4131 -24.2689
ltibia 86.3602
lfoot -2.19426 13.4378
ltoes -17.8612
457
root -9.03892 15.3207 -11.437 -350.449 -8.05955 -3.73745
lowerback 5.70116 -1.65443 5.076
upperback 1.90029 -1.86139 4.25954
thorax -1.25311 -0.936625 1.6721
lowerneck -22.9192 0.0581038 -8.68957
upperneck 19.3329 2.0669 4.06629
head 9.77859 0.790282 3.16484
rclavicle 4.83047e-014 -3.26007e-014
rhumerus -45.1065 25.2937 -81.8309
rradius 90.2503
rwrist -14.7705
rhand -27.835 30.3861
rfingers 7.12502
rthumb -1.22657 0.409905
lclavicle 4.83047e-014 -3.26007e-014
lhumerus -48.5228 -28.2253 96.6709
lradius 86.0529
lwrist 16.2569
lhand -22.8098 49.1932
lfingers 7.12502
lthumb 3.62682 79.1421
rfemur -29.6424 2.32152 24.2309
rtibia 47.788
rfoot -24.665 4.52485
rtoes -2.20102
lfemur -22.8369 12.6158 -24.2906
ltibia 88.7663
lfoot -3.32104 13.3257
ltoes -17.6598
458
root -9.06481 15.2965 -11.1297 -350.626 -8.36409 -4.04667
lowerback 6.01581 -1.43178 5.172
upperback 1.9992 -1.53964 4.34358
thorax -1.32342 -0.77693 1.69052
lowerneck -22.9894 0.0689291 -8.60634
upperneck 19.4395 2.08891 3.94859
head 9.83035 0.789657 3.11621
rclavicle 4.37326e-015 1.66979e-014
rhumerus -43.5312 26.599 -81.6414
rradius 89.7237
rwrist -14.6243
rhand -28.6422 30.9049
rfingers 7.12502
rthumb -2.00613 0.934575
lclavicle 4.37326e-015 1.66979e-014
lhumerus -49.5471 -26.5094 96.5662
lradius 85.3561
lwrist 14.3001
lhand -21.3364 51.5954
lfingers 7.12502
lthumb 5.04956 81.5152
rfemur -27.7315 2.2008 24.5847
rtibia 47.3356
rfoot -26.0898 4.60406
rtoes -4.80984
lfemur -25.6383 12.9925 -23.8683
ltibia 90.8808
lfoot -3.62238 13.0815
ltoes -15.3398
459
root -9.08023 15.2801 -10.8266 -350.571 -8.36014 -4.19808
lowerback 6.04589 -1.22145 5.29988
upperback 2.08658 -1.25619 4.34459
thorax -1.24968 -0.633743 1.59912
lowerneck -23.2346 -0.00975944 -8.39626
upperneck 19.531 1.95946 3.83392
head 9.91967 0.730147 3.02844
rclavicle 4.37326e-014 5.56597e-015
rhumerus -42.0896 27.3123 -81.3439
rradius 89.8156
rwrist -14.2162
rhand -29.0349 30.9584
rfingers 7.12502
rthumb -2.38542 0.991957
lclavicle 4.37326e-014 5.56597e-015
lhumerus -50.417 -25.2652 96.414
lradius 84.7603
lwrist 12.439
lhand -29.6794 47.9626
lfingers 7.12502
lthumb -3.0078 77.9211
rfemur -25.8967 1.65959 24.7183
rtibia 46.4706
rfoot -27.3619 5.21304
rtoes -5.7258
lfemur -28.7535 12.9034 -23.8463
ltibia 92.572
lfoot -4.53728 13.1207
ltoes -10.0557
460
root -9.09005 15.277 -10.4936 -350.49 -8.76585 -4.35052
lowerback 5.92688 -0.974156 5.37323
upperback 1.97017 -0.925518 4.40452
thorax -1.30004 -0.471016 1.59563
lowerneck -22.6619 -0.120574 -8.5237
upperneck 19.4677 1.80991 3.77374
head 9.80576 0.64353 2.99673
rclavicle 1.86858e-014 -7.95139e-015
rhumerus -41.2945 28.5269 -81.2781
rradius 90.0618
rwrist -14.1729
rhand -28.9697 31.0508
rfingers 7.12502
rthumb -2.32245 1.08373
lclavicle 1.86858e-014 -7.95139e-015
lhumerus -52.2116 -23.728 96.7433
lradius 84.559
lwrist 11.4403
lhand -28.4435 50.9476
lfingers 7.12502
lthumb -1.81429 80.9196
rfemur -23.7479 1.31344 24.7002
rtibia 45.2267
rfoot -28.0332 6.55603
rtoes -4.00355
lfemur -31.3473 13.0883 -23.893
ltibia 93.5579
lfoot -7.25239 12.9089
ltoes -2.9774
461
root -9.10172 15.3002 -10.1678 -350.24 -8.88311 -4.15628
lowerback 6.10578 -0.873145 5.11532
upperback 1.31204 -0.745848 4.37953
thorax -2.0767 -0.397251 1.71165
lowerneck -21.2815 -0.136885 -8.79327
upperneck 19.4221 1.71286 3.89137
head 9.54598 0.588238 3.04924
rclavicle 4.4329e-014 -3.18055e-014
rhumerus -41.3793 29.7736 -81.7723
rradius 90.4901
rwrist -14.1809
rhand -29.0605 30.949
rfingers 7.12502
rthumb -2.41016 0.982891
lclavicle 4.4329e-014 -3.18055e-014
lhumerus -54.9651 -22.1052 97.3433
lradius 84.8141
lwrist 11.408
lhand -26.6697 53.0949
lfingers 7.12502
lthumb -0.101034 83.0746
rfemur -21.9225 0.700768 24.3521
rtibia 43.7544
rfoot -28.3536 6.78537
rtoes -6.23263
lfemur -34.1055 12.8303 -24.4028
ltibia 93.9902
lfoot -9.37861 12.5721
ltoes 1.8166
462
root -9.11581 15.3631 -9.8284 -350.173 -8.95548 -3.53199
lowerback 6.16762 -0.683883 4.53376
upperback 1.0675 -0.517585 4.03493
thorax -2.36092 -0.285188 1.664
lowerneck -21.0343 -0.23369 -8.58422
upperneck 19.4989 1.48309 3.91153
head 9.54579 0.496779 2.98948
rclavicle -2.40529e-014 -6.36111e-015
rhumerus -40.9185 30.1712 -82.2293
rradius 91.1464
rwrist -14.0505
rhand -28.4489 31.2423
rfingers 7.12502
rthumb -1.81943 1.27029
lclavicle -2.40529e-014 -6.36111e-015
lhumerus -56.8251 -21.2703 97.3464
lradius 85.1597
lwrist 11.9301
lhand -24.7426 56.7179
lfingers 7.12502
lthumb 1.76013 86.6904
rfemur -19.8985 0.278419 23.488
rtibia 42.0192
rfoot -28.2399 6.50522
rtoes -9.83482
lfemur -36.4871 12.4267 -25.3731
ltibia 93.5933
lfoot -10.2898 12.6548
ltoes 1.60869
